<svg width="41.302582" height="33.269287" viewBox="0 0 41.3026 33.2693" fill="none" xmlns="http://www.w3.org/2000/svg" xmlns:xlink="http://www.w3.org/1999/xlink">
	<path id="path" d="M10.5998 31.4346C10.5998 30.5934 11.2816 29.9116 12.1227 29.9116C12.9638 29.9116 13.6457 30.5934 13.6457 31.4346C13.6457 32.2756 12.9638 32.9575 12.1227 32.9575C11.2816 32.9575 10.5998 32.2756 10.5998 31.4346Z" fill-rule="evenodd" fill="#333333" />
	<path id="path" d="M35.0889 31.4346C35.0889 30.5934 35.7708 29.9116 36.6119 29.9116C37.453 29.9116 38.1348 30.5934 38.1348 31.4346C38.1348 32.2756 37.453 32.9575 36.6119 32.9575C35.7708 32.9575 35.0889 32.2756 35.0889 31.4346Z" fill-rule="evenodd" fill="#333333" />
	<path id="path" d="M12.0618 29.9115L36.6728 29.9115L36.6728 32.9575L12.0618 32.9575L12.0618 29.9115Z" fill-rule="evenodd" fill="#333333" />
	<path id="path" d="M0 1.52307L0 27.962L1.46204 32.4701L2.92407 27.962L2.92407 1.52307C2.92407 1.52307 2.19305 0.365601 1.46204 0.365601C0.731018 0.365601 0 1.52307 0 1.52307Z" fill-rule="evenodd" fill="#333333" />
	<path id="path" d="M38.5003 31.739L38.5003 4.93445L39.8405 0L41.3026 4.93445L41.3026 31.739C41.3026 31.739 40.6629 33.14 39.9624 33.14C39.2618 33.14 38.5003 31.739 38.5003 31.739Z" fill-rule="evenodd" fill="#333333" />
	<path id="path" d="M3.41144 31.3808C3.41144 30.3378 4.88425 29.4923 6.70102 29.4923C8.51779 29.4923 9.9906 30.3378 9.9906 31.3808C9.9906 32.4238 8.51779 33.2693 6.70102 33.2693C4.88425 33.2693 3.41144 32.4238 3.41144 31.3808Z" fill-rule="evenodd" fill="#333333" />
	<path id="path" d="M10.2974 2.31946L5.26642 2.59143C5.26642 2.59143 4.3826 16.7497 12.269 16.3928C20.1554 16.0359 36.8119 1.1637 36.8119 1.1637L29.6735 1.43567C29.6735 1.43567 17.9969 11.2088 13.1528 11.4297C8.30878 11.6508 10.2974 2.31946 10.2974 2.31946Z" fill-rule="evenodd" fill="#333333" />
	<defs />
</svg>
