<svg xmlns="http://www.w3.org/2000/svg" xmlns:xlink="http://www.w3.org/1999/xlink" fill="none" version="1.1" width="1256" height="359" viewBox="0 0 1256 359"><g style="mix-blend-mode:passthrough"><g style="mix-blend-mode:passthrough"><g style="mix-blend-mode:passthrough"><path d="M0,8.96799L0,309.141L15,359L31,309.141L31,8.96799C31,-3.24234,0,-2.73361,0,8.96799Z" fill="#fff" fill-opacity="1"/></g><g style="mix-blend-mode:passthrough" transform="matrix(1,0,0,-1,0,718)"><path d="M427,367.96799L427,668.1410000000001L442,718L458,668.1410000000001L458,367.96799C458,355.75766,427,356.26639,427,367.96799Z" fill="#fff" fill-opacity="1"/></g><g style="mix-blend-mode:passthrough"><ellipse cx="73" cy="337.5" rx="37" ry="21.5" fill="#fff" fill-opacity="1"/></g><g style="mix-blend-mode:passthrough"><rect x="115" y="322" width="307" height="32" rx="16" fill="#fff" fill-opacity="1"/></g><g style="mix-blend-mode:passthrough"><path d="M57.00000164355469,14Q54.00000964355469,109,87.99995964355469,147.5C119.26765964355468,182.906,157.30075964355467,165.454,188.4897596435547,151.142C191.2147596435547,149.892,193.8877596435547,148.665,196.49975964355468,147.5Q228.99975964355468,133,406.4997596435547,0L330.9997596435547,0Q180.99975964355468,115,145.9999596435547,111.5C110.99995964355469,108,108.99995964355469,80,108.99995964355469,70Q108.99995964355469,60,113.49995964355469,11.5L57.00000164355469,14Z" fill="#fff" fill-opacity="1"/></g></g><g style="mix-blend-mode:passthrough"><g style="mix-blend-mode:passthrough"><path d="M665.094,88.125L665.281,88.125L663.969,97.1406L681.828,97.1406L683.344,86.0469L676.938,79.4688L712.469,79.4688L710.031,97.1406L728.078,97.1406L725.641,115L707.406,115L705.516,129.14100000000002L720,129.14100000000002L717.547,147L702.891,147L701.016,161.094L715.859,161.094L713.234,179.234L698.562,179.234L696.5,192.891L714.922,192.891L712.281,211.312L647.9844,211.312L647.6094,214.578L618.6562,214.578L633.3281,109.5469L626.1875,111.4219L629.1875,90L666.422,79.6562L665.094,88.125ZM571.2812,121.4844L595.5469,84.3594L591.4062,79.6562L630.7031,79.6562L603.4375,121.8906L624.875,121.8906L597.4219,164.766L618.8594,164.766L616.2188,183L562.64062,183L565.26562,164.578L582,139.297L568.8438,139.297L571.2812,121.4844ZM612.8438,207.375L558.6875,210.953L561.32812,193.125L615.2812,189.547L612.8438,207.375ZM659.453,129.14100000000002L677.312,129.14100000000002L679.203,115L661.531,115L659.453,129.14100000000002ZM650.625,192.891L668.297,192.891L670.172,179.234L652.5,179.234L650.625,192.891ZM655.1406,161.094L672.812,161.094L674.688,147L657.016,147L655.1406,161.094ZM816.1089999999999,90L816.672,86.4219L810.656,79.2812L853.5160000000001,79.2812L852.0160000000001,90L902.0160000000001,90L899.3910000000001,107.8594L784.141,107.8594L762.906,214.484L730.75,214.484L754.25,96.75L748.422,90L816.1089999999999,90ZM805.766,193.25L779.25,175.578L779.625,172L781.891,156.016L889.047,156.016L886.422,175.562L854.6410000000001,193.234L887.922,214.484L837.906,214.484L828.1410000000001,208.094L816.4839999999999,214.484L766.469,214.484L805.766,193.25ZM891.875,111.4844L891.1089999999999,116.75L898.2660000000001,116.75L896.188,131.031L889.047,131.031L886.2339999999999,151L786.219,151L789.031,131.031L781.891,131.031L783.953,116.75L791.094,116.75L791.859,111.4844L827.578,111.4844L826.812,116.75L855.3910000000001,116.75L856.1410000000001,111.4844L891.875,111.4844ZM852.578,136.719L853.328,131.031L824.75,131.031L824,136.719L852.578,136.719ZM821.375,172L832.2660000000001,178.953L845.062,172L821.375,172ZM1060.359,173.141L1054.719,212.859L905.438,212.859L911.078,173.141L1060.359,173.141ZM1059.047,133.703L1054.156,169.203L919.172,169.203L924.062,133.703L1059.047,133.703ZM949.438,103L920.8589999999999,103L923.297,86.2656L951.5,86.2656L945.672,79.3125L984.969,79.3125L983.844,86.2656L1012.2339999999999,86.2656L1006.406,79.3125L1045.688,79.3125L1044.562,86.2656L1073.328,86.2656L1070.891,103L1042.312,103L1041.75,107.3281L1009.594,107.3281L1010.156,103L981.578,103L981.0160000000001,107.3281L948.875,107.3281L949.438,103ZM1034.031,126L951.312,126L950.75,130.89100000000002L917.094,130.89100000000002L919.7339999999999,110.9688L1069.75,110.9688L1067.125,130.89100000000002L1033.469,130.89100000000002L1034.031,126ZM1025.391,198L1026.891,188L940.406,188L938.906,198L1025.391,198ZM1025.953,154.906L1026.891,148L951.875,148L950.938,154.906L1025.953,154.906ZM1082.766,211.859L1092.359,193.906L1101.375,129.281L1094.234,129.281L1096.688,111.6875L1135.969,111.6875L1125.625,185.719L1151.391,194L1238.812,194L1236.359,211.859L1136.344,211.859L1117.734,206.406L1114.922,211.859L1082.766,211.859ZM1179.406,83.125L1175.641,93.8438L1188.422,93.8438L1189.547,86.6875L1183.344,79.5469L1219.062,79.5469L1217,93.8438L1242.188,93.8438L1239.938,110L1214.75,110L1212.859,124.0156L1241.438,124.0156L1239.188,140L1139.172,140L1141.422,124.0156L1184.281,124.0156L1186.172,110L1170.188,110L1167.188,118.8438L1142.172,118.8438L1152.328,89.1406L1147.25,83.125L1179.406,83.125ZM1229.031,186.281L1136.156,186.281L1142.172,143.703L1235.047,143.703L1229.031,186.281ZM1206.094,172L1208.156,158L1165.297,158L1163.234,172L1206.094,172ZM1129.391,83.125L1137.094,104.5469L1108.531,104.5469L1100.812,83.125L1129.391,83.125Z" fill="#fff" fill-opacity="1"/></g><g style="mix-blend-mode:passthrough"><g style="mix-blend-mode:passthrough"><path d="M671.9688,282L679.7969,282L681.1562,296.5L686.3125,282L696.7969,282L686.3125,311L675.9219,311L673.9375,296.5L668.0938,311L657.625,311L655.65625,283.9219L654.35938,282L665.4375,282L666.7344,296.5L671.9688,282ZM735.6094,299L714.7344,299L714.0625,304.4219L732.3438,304.4219L735.6094,301.75L733.6406,311L704.9375,311Q702.9688,311,701.9844,309.7031Q701,308.3906,701,306.4062L704.2656,282L738.2031,282L735.6094,299ZM716.6406,288.5781L716.0312,292.4219L723.8438,292.4219L724.5312,288.5781L716.6406,288.5781ZM760.719,280L748.2812,280L748.9531,272L762.016,272L760.719,280ZM760.719,282L756.781,311L743.7188,311L747.6562,283.9219L745.6875,282L760.719,282ZM794.109,268L807.172,268L801.328,311L771.938,311Q769.969,311,768.984,309.7031Q768,308.3906,768,306.4062L771.266,282L792.141,282L794.109,268ZM783.297,288.5781L780.781,304.4219L789.078,304.4219L791.531,288.5781L783.297,288.5781ZM828.719,282L825.734,302.6094L833.891,301.7812L836.547,283.9219L834.562,282L849.594,282L845.656,311L832.594,311L833,308.3906L811.719,311L815.656,283.9219L813.688,282L828.719,282ZM897.016,283.9688L895.109,282L909.453,282L912.9839999999999,296.4219L919.25,283.2969L917.953,282L932.922,282L911.0160000000001,322.4219Q910.469,323.375,909.203,324.1875Q907.953,325,906.469,325L894.359,325L899.594,319.7656L904.703,310.0938L897.016,283.9688ZM953.719,280L941.281,280L941.953,272L955.0160000000001,272L953.719,280ZM953.719,282L949.781,311L936.719,311L940.656,283.9219L938.688,282L953.719,282ZM998.594,282L994.656,311L981.594,311L984.8589999999999,288.5781L977.047,288.5781L973.781,311L960.719,311L964.656,283.9219L962.688,282L998.594,282ZM1025.281,318.4219L1026.562,311L1005.688,311L1009.562,282L1043.562,282L1038.328,320.4531Q1038.062,322.4219,1036.562,323.7031Q1035.062,325,1033.094,325L1003.719,325L1005.0160000000001,315.9531L1007.656,318.4219L1025.281,318.4219ZM1022.0160000000001,288.5781L1019.562,304.4219L1027.25,304.4219L1029.828,288.5781L1022.0160000000001,288.5781ZM1049.938,288.5781L1051.297,282L1081.969,282L1081.297,288.6094L1063,304.4219L1079.312,304.4219L1078.031,311L1047.359,311L1048.047,304.4062L1066.938,288.5781L1049.938,288.5781ZM1108.578,288.5781L1101.641,288.5781L1101.031,291.2812L1087.969,291.2812L1089.938,282L1121.906,282L1117.969,307.7031L1120.609,311L1089.938,311Q1087.969,311,1086.984,309.7031Q1086,308.3906,1086,306.4062L1087.969,294L1107.562,294L1108.578,288.5781ZM1099.734,300.5781L1099.062,304.4219L1105.578,304.4219L1106.266,300.5781L1099.734,300.5781ZM1159.562,282Q1161.531,282,1162.516,283.6094Q1163.5,285.2188,1163.5,287.2031L1160.25,311L1130.922,311Q1128.969,311,1127.984,309.7031Q1127,308.3906,1127,306.4062L1130.25,282L1159.562,282ZM1142.609,288.5781L1140.031,304.4219L1147.828,304.4219L1150.469,288.5781L1142.609,288.5781Z" fill="#fff" fill-opacity="1"/></g><g style="mix-blend-mode:passthrough"><path d="M550,288.5L638,288.5L638,296.5L550,296.5L550,288.5Z" fill="#fff" fill-opacity="1"/></g><g style="mix-blend-mode:passthrough"><path d="M1168,288.5L1256,288.5L1256,296.5L1168,296.5L1168,288.5Z" fill="#fff" fill-opacity="1"/></g></g></g></g></svg>