<svg xmlns="http://www.w3.org/2000/svg" xmlns:xlink="http://www.w3.org/1999/xlink" fill="none" version="1.1" width="24" height="24" viewBox="0 0 24 24"><defs><clipPath id="master_svg0_3_3"><rect x="0" y="0" width="24" height="24" rx="0"/></clipPath></defs><g clip-path="url(#master_svg0_3_3)"><g><path d="M22.1397,17.148899999999998C22.0248,16.5771,21.7694,16.043,21.3964,15.5947L17.7836,11.25937C17.1195,10.46032,16.1339,9.99868,15.0948,10L8.90516,10C7.86614,9.99868,6.88054,10.46032,6.21641,11.25937L2.60359,15.5947C2.23061,16.043,1.975165,16.5771,1.860313,17.148899999999998L1.3685939999999999,19.6078C1.121153,20.8454,2.06768,22,3.32969,22L20.6703,22C21.9324,21.9999,22.8789,20.8454,22.6314,19.6078L22.1397,17.148899999999998ZM12,17C9.79094,17,8,15.8808,8,14.5C8,13.1192,9.79094,12,12,12C14.2091,12,16,13.1192,16,14.5C16,15.8808,14.2091,17,12,17ZM23,7.5L23,8.75C22.9992,9.44003,22.44,9.999220000000001,21.75,10L17.25,10C16.560000000000002,9.999220000000001,16.000799999999998,9.44003,16,8.75L16,7.5C16,7.18937,15.6094,6.82266,14.9789,6.54265C14.1916,6.19266,13.1336,6,12,6C10.86641,6,9.80844,6.19266,9.02109,6.54266C8.39062,6.82266,8,7.18937,8,7.5L8,8.75C7.99923,9.44003,7.44004,9.99923,6.75,10L2.25,10C1.559965,9.99923,1.000774801,9.44003,1,8.75L1,7.5C1,5.96094,2.19344,4.545,4.360469999999999,3.51297C6.40938,2.537344,9.1225,2,12,2C14.8775,2,17.5906,2.537344,19.6395,3.51297C21.8066,4.545,23,5.96094,23,7.5Z" fill="#5C5C66" fill-opacity="1"/></g></g></svg>